<?xml version="1.0" encoding="utf-8"?>
<!-- Generator: Adobe Illustrator 21.0.0, SVG Export Plug-In . SVG Version: 6.00 Build 0)  -->
<svg version="1.1" id="Layer_1" xmlns="http://www.w3.org/2000/svg" xmlns:xlink="http://www.w3.org/1999/xlink" x="0px" y="0px"
	 viewBox="0 0 1280 500" style="enable-background:new 0 0 1280 500;" xml:space="preserve">
<style type="text/css">
	.st0{fill:#29ABE2;}
	.st1{fill:none;stroke:#29ABE2;stroke-width:7;stroke-miterlimit:10;}
	.st2{fill:#2BE092;}
	.st3{opacity:0.41;fill:#29ABE2;enable-background:new    ;}
	.st4{opacity:0.46;fill:#29ABE2;enable-background:new    ;}
</style>
<g id="Layer_3">
</g>
<g id="Layer_1_1_">
	<path class="st0" d="M158.7,190.6H59.3c-3.1,0-5.6-2.5-5.6-5.6V85.5c0-3.1,2.5-5.6,5.6-5.6h99.4c3.1,0,5.6,2.5,5.6,5.6V185
		C164.3,188.1,161.8,190.6,158.7,190.6z"/>
</g>
<g id="Layer_2">
	<circle class="st1" cx="221.5" cy="138.5" r="38.7"/>
</g>
<g id="Layer_4">
	<path class="st0" d="M239.1,138.5l-27.8,13.9c-1.9,1-4.2-0.4-4.2-2.6v-22.5c0-2.2,2.2-3.6,4.2-2.6L239.1,138.5L239.1,138.5z"/>
</g>
<g id="Layer_5">
	<rect x="690.9" y="90.6" class="st2" width="13.2" height="77.3"/>
	<rect x="278.6" y="114.5" class="st2" width="13.2" height="53.4"/>
	<rect x="298.5" y="137.3" class="st2" width="13.2" height="30.7"/>
	<rect x="319.6" y="104.2" class="st2" width="13.2" height="63.7"/>
	<rect x="339.6" y="122.6" class="st2" width="13.2" height="45.3"/>
	<rect x="360.8" y="156.8" class="st2" width="13.2" height="11.2"/>
	<rect x="381.9" y="99.8" class="st2" width="13.2" height="68.1"/>
	<rect x="403.1" y="123.9" class="st2" width="13.2" height="44"/>
	<rect x="424.3" y="90.6" class="st2" width="13.2" height="77.3"/>
	<rect x="445.5" y="114.5" class="st2" width="13.2" height="53.4"/>
	<rect x="465.3" y="137.3" class="st2" width="13.2" height="30.7"/>
	<rect x="486.5" y="104.2" class="st2" width="13.2" height="63.7"/>
	<rect x="506.4" y="122.6" class="st2" width="13.2" height="45.3"/>
	<rect x="527.6" y="156.8" class="st2" width="13.2" height="11.2"/>
	<rect x="548.7" y="99.8" class="st2" width="13.2" height="68.1"/>
	<rect x="569.9" y="123.9" class="st2" width="13.2" height="44"/>
	<rect x="591.2" y="89.9" class="st2" width="13.2" height="77.3"/>
	<rect x="612.3" y="113.8" class="st2" width="13.2" height="53.4"/>
	<rect x="632.2" y="136.6" class="st2" width="13.2" height="30.7"/>
	<rect x="653.4" y="103.6" class="st2" width="13.2" height="63.7"/>
	<rect x="673.2" y="122" class="st2" width="13.2" height="45.3"/>
	<rect x="715.5" y="99.2" class="st2" width="13.2" height="68.1"/>
	<rect x="736.8" y="123.3" class="st2" width="13.2" height="44"/>
	<rect x="758" y="89.9" class="st2" width="13.2" height="77.3"/>
	<rect x="779.1" y="113.8" class="st2" width="13.2" height="53.4"/>
	<rect x="799" y="136.6" class="st2" width="13.2" height="30.7"/>
	<rect x="820.2" y="103.6" class="st2" width="13.2" height="63.7"/>
	<rect x="840" y="122" class="st2" width="13.2" height="45.3"/>
	<rect x="861.3" y="99.2" class="st2" width="13.2" height="68.1"/>
	<rect x="882.4" y="123.3" class="st2" width="13.2" height="44"/>
	<rect x="903.6" y="103.6" class="st2" width="13.2" height="63.7"/>
	<rect x="923.5" y="122" class="st2" width="13.2" height="45.3"/>
	<rect x="944.6" y="99.2" class="st2" width="13.2" height="68.1"/>
	<rect x="965.9" y="123.3" class="st2" width="13.2" height="44"/>
	<rect x="987.2" y="114.3" class="st2" width="13.2" height="53.4"/>
	<rect x="1007.1" y="137.1" class="st2" width="13.2" height="30.7"/>
	<rect x="1028.3" y="104" class="st2" width="13.2" height="63.7"/>
	<rect x="1048.2" y="122.4" class="st2" width="13.2" height="45.3"/>
	<rect x="1069.4" y="156.5" class="st2" width="13.2" height="11.2"/>
</g>
<g id="Layer_2_1_">
	<rect x="1101.1" y="85.9" class="st3" width="105.3" height="19.3"/>
	<rect x="1101.1" y="124.2" class="st4" width="129" height="55.4"/>
</g>
</svg>
