<?xml version="1.0" encoding="utf-8"?>
<!-- Generator: Adobe Illustrator 21.0.0, SVG Export Plug-In . SVG Version: 6.00 Build 0)  -->
<svg version="1.1" id="Layer_1" xmlns="http://www.w3.org/2000/svg" xmlns:xlink="http://www.w3.org/1999/xlink" x="0px" y="0px"
	 viewBox="0 0 1280 500" style="enable-background:new 0 0 1280 500;" xml:space="preserve">
<style type="text/css">
	.st0{fill:#29ABE2;}
	.st1{fill:none;stroke:#29ABE2;stroke-width:7;stroke-miterlimit:10;}
	.st2{opacity:0.41;fill:#29ABE2;enable-background:new    ;}
	.st3{opacity:0.46;fill:#29ABE2;enable-background:new    ;}
	.st4{fill:#2BE0AC;}
</style>
<g id="Layer_3">
</g>
<g id="Layer_1_1_">
	<path class="st0" d="M306.1,315.4H94.6c-6.6,0-12-5.4-12-12V91.9c0-6.6,5.4-12,12-12h211.5c6.6,0,12,5.4,12,12v211.5
		C318.1,310,312.7,315.4,306.1,315.4z"/>
</g>
<g id="Layer_2">
	<circle class="st1" cx="410.2" cy="267" r="48.4"/>
</g>
<g id="Layer_4">
	<path class="st0" d="M435.3,267l-34.8,17.4c-2.4,1.2-5.3-0.5-5.3-3.3v-28.2c0-2.7,2.8-4.5,5.3-3.3L435.3,267L435.3,267z"/>
	<rect x="496.9" y="222.7" class="st2" width="349.3" height="19.3"/>
	<rect x="496.9" y="260" class="st3" width="427.7" height="55.4"/>
</g>
<g id="Layer_5">
	<rect x="805.6" y="73.9" class="st4" width="14.2" height="117.7"/>
	<rect x="363.4" y="110.3" class="st4" width="14.2" height="81.3"/>
	<rect x="384.7" y="145" class="st4" width="14.2" height="46.7"/>
	<rect x="407.4" y="94.7" class="st4" width="14.2" height="97"/>
	<rect x="428.8" y="122.7" class="st4" width="14.2" height="69"/>
	<rect x="451.5" y="174.7" class="st4" width="14.2" height="17"/>
	<rect x="474.2" y="88" class="st4" width="14.2" height="103.7"/>
	<rect x="496.9" y="124.7" class="st4" width="14.2" height="67"/>
	<rect x="519.6" y="73.9" class="st4" width="14.2" height="117.7"/>
	<rect x="542.4" y="110.3" class="st4" width="14.2" height="81.3"/>
	<rect x="563.6" y="145" class="st4" width="14.2" height="46.7"/>
	<rect x="586.4" y="94.7" class="st4" width="14.2" height="97"/>
	<rect x="607.7" y="122.7" class="st4" width="14.2" height="69"/>
	<rect x="630.4" y="174.7" class="st4" width="14.2" height="17"/>
	<rect x="653.1" y="88" class="st4" width="14.2" height="103.7"/>
	<rect x="675.8" y="124.7" class="st4" width="14.2" height="67"/>
	<rect x="698.6" y="72.9" class="st4" width="14.2" height="117.7"/>
	<rect x="721.3" y="109.3" class="st4" width="14.2" height="81.3"/>
	<rect x="742.6" y="144" class="st4" width="14.2" height="46.7"/>
	<rect x="765.3" y="93.7" class="st4" width="14.2" height="97"/>
	<rect x="786.6" y="121.7" class="st4" width="14.2" height="69"/>
	<rect x="832" y="87" class="st4" width="14.2" height="103.7"/>
	<rect x="854.8" y="123.7" class="st4" width="14.2" height="67"/>
	<rect x="877.5" y="72.9" class="st4" width="14.2" height="117.7"/>
	<rect x="900.2" y="109.3" class="st4" width="14.2" height="81.3"/>
	<rect x="921.5" y="144" class="st4" width="14.2" height="46.7"/>
	<rect x="944.2" y="93.7" class="st4" width="14.2" height="97"/>
	<rect x="965.5" y="121.7" class="st4" width="14.2" height="69"/>
	<rect x="988.3" y="87" class="st4" width="14.2" height="103.7"/>
	<rect x="1011" y="123.7" class="st4" width="14.2" height="67"/>
	<rect x="1033.7" y="93.7" class="st4" width="14.2" height="97"/>
	<rect x="1055" y="121.7" class="st4" width="14.2" height="69"/>
	<rect x="1077.7" y="87" class="st4" width="14.2" height="103.7"/>
	<rect x="1100.5" y="123.7" class="st4" width="14.2" height="67"/>
	<rect x="1123.4" y="110" class="st4" width="14.2" height="81.3"/>
	<rect x="1144.7" y="144.7" class="st4" width="14.2" height="46.7"/>
	<rect x="1167.4" y="94.3" class="st4" width="14.2" height="97"/>
	<rect x="1188.8" y="122.3" class="st4" width="14.2" height="69"/>
	<rect x="1211.5" y="174.3" class="st4" width="14.2" height="17"/>
</g>
</svg>
