<?xml version="1.0" encoding="utf-8"?>
<!-- Generator: Adobe Illustrator 21.0.0, SVG Export Plug-In . SVG Version: 6.00 Build 0)  -->
<svg version="1.1" id="Layer_1" xmlns="http://www.w3.org/2000/svg" xmlns:xlink="http://www.w3.org/1999/xlink" x="0px" y="0px"
	 viewBox="0 0 1280 500" style="enable-background:new 0 0 1280 500;" xml:space="preserve">
<style type="text/css">
	.st0{fill:#29ABE2;}
	.st1{fill:#22B573;}
	.st2{fill:none;stroke:#FFFFFF;stroke-width:7;stroke-miterlimit:10;}
	.st3{fill:#DDDDDD;stroke:#FFFFFF;stroke-miterlimit:10;}
	.st4{fill:#6184AF;}
	.st5{font-family:'ArialMT';}
	.st6{font-size:36px;}
	.st7{fill:#896666;}
	.st8{font-family:'Arial-BoldMT';}
	.st9{fill:#8C8C8C;}
	.st10{fill:#7A4C4C;}
	.st11{font-size:18px;}
</style>
<g id="Layer_3">
</g>
<g id="thumb">
	<path class="st0" d="M1207.7,222.7H287.1c-5.5,0-9.9-5.9-9.9-13.2V93.1c0-7.3,4.5-13.2,9.9-13.2h920.6c5.5,0,9.9,5.9,9.9,13.2
		v116.4C1217.6,216.8,1213.1,222.7,1207.7,222.7z"/>
</g>
<g id="scrub">
	<rect x="88.1" y="79.9" class="st1" width="189" height="142.8"/>
</g>
<g id="play_outer">
	<circle class="st2" cx="182.6" cy="151.8" r="48.8"/>
</g>
<g id="play_inner">
	<path class="st3" d="M207.8,151.8l-35.1,17.6c-2.4,1.2-5.2-0.6-5.2-3.2v-28.5c0-2.8,2.8-4.4,5.2-3.2L207.8,151.8L207.8,151.8z"/>
</g>
<g id="time">
	<text transform="matrix(1 0 0 1 301.1071 191.5934)" class="st4 st5 st6">00:00</text>
</g>
<g id="author">
	<text transform="matrix(1 0 0 1 301.107 135.5115)" class="st7 st8 st6">author</text>
	<text transform="matrix(1 0 0 1 413.107 135.5115)" class="st8 st6"> </text>
	<text transform="matrix(1 0 0 1 423.107 135.5115)" class="st9 st5 st6">-</text>
	<text transform="matrix(1 0 0 1 435.107 135.5115)" class="st5 st6"> </text>
</g>
<g id="track_info">
	<text transform="matrix(1 0 0 1 448.5993 132.6292)" class="st10 st5 st11">track info</text>
</g>
<g id="volume">
	<polygon class="st10" points="1114,183.7 1101.4,182.4 1101.4,176.9 1114,175.7 	"/>
	<polygon class="st10" points="1114,175.7 1118.9,169.8 1118.9,188.9 1114,183.7 	"/>
	<rect x="1126.6" y="174.2" class="st10" width="70.1" height="11.8"/>
</g>
</svg>
