<?xml version="1.0" encoding="utf-8"?>
<!-- Generator: Adobe Illustrator 21.0.0, SVG Export Plug-In . SVG Version: 6.00 Build 0)  -->
<svg version="1.1" xmlns="http://www.w3.org/2000/svg" xmlns:xlink="http://www.w3.org/1999/xlink" x="0px" y="0px"
	 viewBox="0 0 1280 500" style="enable-background:new 0 0 1280 500;" xml:space="preserve">
<style type="text/css">
	.st0{fill:none;stroke:#29ABE2;stroke-width:7;stroke-miterlimit:10;}
	.st1{fill:#29ABE2;}
	.st2{fill:#6184AF;}
	.st3{font-family:'ArialMT';}
	.st4{font-size:36px;}
	.st5{fill:#896666;}
	.st6{font-family:'Arial-BoldMT';}
	.st7{fill:#7A4C4C;}
	.st8{font-size:18px;}
	.st9{fill:#4BA065;}
</style>
<g id="Layer_1">
	<g id="Layer_3">
	</g>
	<g id="play_outer">
		<circle class="st0" cx="138.3" cy="160.5" r="50.7"/>
	</g>
	<g id="play_inner">
		<path class="st1" d="M164.5,160.5l-36.4,18.2c-2.5,1.3-5.4-0.6-5.4-3.3v-29.5c0-2.9,2.9-4.6,5.4-3.3L164.5,160.5L164.5,160.5z"/>
	</g>
	<g id="time">
		<text transform="matrix(1 0 0 1 219.1143 170.0879)" class="st2 st3 st4">00:00</text>
	</g>
	<g id="author">
		<text transform="matrix(1 0 0 1 1106.1082 154.0334)" class="st5 st6 st4">author</text>
		<text transform="matrix(1 0 0 1 1240.1082 154.0334)" class="st3 st4"> </text>
	</g>
	<g id="track_info">
		<text transform="matrix(1 0 0 1 1121.6005 179.1424)" class="st7 st3 st8">track info</text>
	</g>
	<g id="volume">
		<polygon class="st7" points="1080.8,163.4 1068.2,162.1 1068.2,156.6 1080.8,155.4 		"/>
		<polygon class="st7" points="1080.8,155.4 1085.7,149.5 1085.7,168.6 1080.8,163.4 		"/>
	</g>
	<g id="time_1_">
		<text transform="matrix(1 0 0 1 964.1143 170.62)" class="st2 st3 st4">00:00</text>
	</g>
</g>
<g id="Layer_2">
	<rect x="345" y="149" class="st9" width="600" height="16"/>
</g>
</svg>
