<?xml version="1.0" encoding="utf-8"?>
<!-- Generator: Adobe Illustrator 21.0.0, SVG Export Plug-In . SVG Version: 6.00 Build 0)  -->
<svg version="1.1" id="Layer_1" xmlns="http://www.w3.org/2000/svg" xmlns:xlink="http://www.w3.org/1999/xlink" x="0px" y="0px"
	 viewBox="0 0 1280 500" style="enable-background:new 0 0 1280 500;" xml:space="preserve">
<style type="text/css">
	.st0{opacity:0.75;}
	.st1{fill:#29ABE2;}
	.st2{fill:#FFFFFF;}
	.st3{fill:none;stroke:#EFF3F4;stroke-width:7;stroke-miterlimit:10;}
	.st4{fill:#22B573;}
	.st5{fill:#6184AF;}
	.st6{font-family:'ArialMT';}
	.st7{font-size:36px;}
	.st8{fill:#896666;}
	.st9{font-family:'Arial-BoldMT';}
	.st10{font-size:72px;}
	.st11{fill:#7A4C4C;}
	.st12{font-size:18px;}
</style>
<g id="Layer_3">
</g>
<g id="thumb" class="st0">
	<path class="st1" d="M327.5,311.9H85.2c-1.4,0-2.6-9.7-2.6-21.5V101.4c0-11.8,1.2-21.5,2.6-21.5h242.3c1.4,0,2.6,9.7,2.6,21.5
		v189.1C330.1,302.2,328.9,311.9,327.5,311.9z"/>
</g>
<g id="Layer_2">
	<polygon class="st2" points="256.6,191 181.3,240.6 181.3,151.2 256.6,191 	"/>
</g>
<g id="play_outer">
	<circle class="st3" cx="206.4" cy="195.9" r="88.7"/>
</g>
<g id="scrub">
	<rect x="361.1" y="222.7" class="st4" width="866.4" height="13.7"/>
</g>
<g id="time">
	<text transform="matrix(1 0 0 1 361.1046 296.6938)" class="st5 st6 st7">00:00</text>
</g>
<g id="author">
	<text transform="matrix(1 0 0 1 359.1002 145.0959)" class="st8 st9 st10">author</text>
	<text transform="matrix(1 0 0 1 471.1002 145.0959)" class="st9 st10"> </text>
	<text transform="matrix(1 0 0 1 493.1002 145.0959)" class="st6 st10"> </text>
</g>
<g id="track_info">
	<text transform="matrix(1 0 0 1 361.1045 188.6992)" class="st11 st6 st12">track info</text>
</g>
</svg>
