<svg width="183" height="14" xmlns="http://www.w3.org/2000/svg"><path d="M2.281 5.691H8.27V.525h2.197v13.151H8.27V7.654H2.281v6.022H0V.526h2.281v5.165zm171.582.056h5.988V.58h2.198v13.15h-2.198V7.708h-5.988v6.021h-2.282V.58h2.282v5.167zM23.385 9.387l-2.08-6.19-1.946 6.19h4.026zm-7.833 4.344l4.411-13.2h2.734l4.428 13.2h-2.23l-.84-2.466h-5.384l-.787 2.466h-2.332zM34.76 8.548c0 .95.29 1.759.872 2.423.58.667 1.296.999 2.147.999.96 0 1.705-.391 2.23-1.174.425-.649.638-1.398.638-2.248V.497h2.197v8.437c0 1.398-.459 2.578-1.375 3.54-.962 1.017-2.192 1.525-3.69 1.525-1.51 0-2.76-.475-3.75-1.425-.989-.95-1.484-2.165-1.484-3.64V.497h2.214v8.051h.001zm18.93-6.295c-.727 0-1.286.17-1.677.512-.392.341-.587.785-.587 1.333 0 .828.591 1.37 1.778 1.627l2.885.62c.793.169 1.443.537 1.946 1.108.525.604.787 1.32.787 2.147 0 1.264-.441 2.304-1.324 3.12-.884.816-2.047 1.224-3.49 1.224-1.14 0-2.07-.174-2.792-.52-.722-.346-1.53-.995-2.424-1.946l1.694-1.425c1.14 1.23 2.315 1.845 3.522 1.845 1.778 0 2.668-.593 2.668-1.778 0-.917-.543-1.493-1.628-1.727l-2.683-.57c-.951-.214-1.711-.666-2.281-1.36-.56-.66-.84-1.42-.84-2.28 0-1.186.426-2.132 1.275-2.835C51.37.643 52.516.29 53.958.29a8.346 8.346 0 0 1 1.846.285c1.33.357 2.258.99 2.784 1.895l-1.795 1.325c-.604-.95-1.639-1.465-3.103-1.543v.001zm13.628 3.69h5.635v1.963h-5.519v3.74h6.375v2.03h-8.706V.476h8.32v1.962h-6.105v3.505zm17.584.604c1.51 0 2.264-.654 2.264-1.962 0-.65-.205-1.152-.612-1.51-.408-.357-.942-.536-1.602-.536h-2.667v4.008h2.617zm2.432 7.13l-2.684-5.15h-2.365v5.15h-2.198V.575h4.73c1.455 0 2.578.419 3.372 1.258.693.75 1.04 1.722 1.04 2.919a5.617 5.617 0 0 1-.285 1.526c-.38 1.063-1.051 1.716-2.012 1.962l2.733 5.435h-2.331v.002zm28.916.054L113.044.497h2.349l2.247 8.705 1.996-8.705h2.6l2.13 8.705 2.097-8.705h2.299l-3.037 13.234h-2.5l-2.28-9.746-2.18 9.746h-2.517.002zm17.953 0h2.298V.513h-2.298v13.218zm13.869-7.184c1.51 0 2.265-.654 2.265-1.962 0-.65-.205-1.152-.612-1.51-.408-.357-.942-.536-1.601-.536h-2.667v4.008h2.615zm2.433 7.13l-2.684-5.15h-2.364v5.15h-2.199V.575h4.731c1.454 0 2.577.419 3.372 1.258.693.75 1.04 1.722 1.04 2.919a5.618 5.618 0 0 1-.285 1.526c-.381 1.063-1.052 1.716-2.014 1.962l2.734 5.435h-2.331v.002zm15.947-11.072h-3.607v11.071h-2.198V2.605h-3.623V.593h9.428v2.012zm-64.76.22c-.658 0-.987.378-.987 1.132 0 .417.151.809.45 1.176.29-.077.581-.252.87-.522.33-.3.495-.59.495-.871 0-.61-.276-.915-.828-.915zm-2.264 6.023c0 .494.203.956.61 1.386.406.431.856.646 1.35.646.174-.01.338-.034.493-.072.368-.097.658-.267.87-.508l-2.22-3.12c-.687.32-1.054.876-1.103 1.668zm5.166-1.349h1.83c-.02.978-.427 2.002-1.22 3.077.166.183.411.285.74.304-.009 0 .223-.03.697-.087l.203 1.669c-.28.106-.638.164-1.074.174-.444 0-.798-.057-1.06-.174-.212-.096-.487-.3-.826-.61-.6.365-1.05.592-1.35.68-.232.07-.6.104-1.103.104-1.006 0-1.88-.375-2.62-1.125-.74-.752-1.11-1.597-1.11-2.536a4.63 4.63 0 0 1 .233-1.207c.319-.89.88-1.526 1.683-1.903-.446-.436-.683-1.104-.712-2.006 0-.659.247-1.263.74-1.816.533-.581 1.152-.872 1.859-.872.793 0 1.444.259 1.952.777s.76 1.144.76 1.88c-.027.367-.11.71-.245 1.03-.329.754-.9 1.32-1.712 1.698l1.813 2.452c.088-.116.165-.247.233-.391.155-.34.25-.712.289-1.118z" fill-rule="nonzero"/></svg>