<svg height="50" viewBox="0 0 50 50" width="50" xmlns="http://www.w3.org/2000/svg"><path d="m25 0c13.8071187 0 25 11.1928813 25 25s-11.1928813 25-25 25-25-11.1928813-25-25 11.1928813-25 25-25zm.6342825 11.0008122-2.5462418-.0000102c-2.7522876.0040205-3.2913549.0241819-4.6348843.083198-1.5231563.0671563-2.5703126.3136875-3.4774688.6663125-.963375.364-1.8256875.9240001-2.5425313 1.6576875-.728.7168438-1.2934688 1.5848438-1.652 2.5368438-.3528438.9128438-.5991563 1.9543126-.6663126 3.4774689-.0640142 1.3485274-.0847813 1.8882006-.0888753 4.6405616l-.0000101 2.5462418c.0040205 2.7522876.0241819 3.2913549.083198 4.6348843.0671562 1.5231563.3136874 2.5703126.6665312 3.4776875.364.9631563.9294688 1.8254689 1.6574688 2.5423126.7168438.728 1.5848438 1.2936875 2.5368438 1.652.9128437.3528438 1.9543126.5991563 3.4776875.6663126 1.4359812.0632916 1.9530997.0817984 5.2368906.0838092h1.3422168c3.2837683-.0020108 3.8007063-.0205176 5.2368929-.0838092 1.5231563-.0671563 2.5703125-.3134688 3.4774688-.6663126 1.9265313-.7448437 3.4496876-2.268 4.1945313-4.1943126.3526251-.9128437.5991563-1.9545312.6663125-3.4776875.0671563-1.5288438.084-2.0160001.084-5.9080001 0-3.8920001-.0056874-4.3791564-.0728437-5.9080001-.0671563-1.5231563-.3134688-2.5703126-.6663125-3.4776876-.364-.9631563-.924-1.8254688-1.6576875-2.5423126-.7168438-.728-1.5848438-1.2936875-2.5368438-1.652-.9126251-.3528437-1.9543126-.5991563-3.4774689-.6663125-1.3485274-.0640142-1.8882006-.0847814-4.6405616-.0888753zm-.0100109 2.6039899c2.7039763.0040205 3.2146511.0241818 4.5385725.083198 1.4.0616874 2.1560001.2968437 2.6600001.4928437.6214688.2294688 1.1871563.5934688 1.6463125 1.0694688.476.4648438.84 1.0248438 1.0696875 1.6465312.196.5040001.4311563 1.2654689.4928438 2.6600001.0610511 1.3745455.0805217 1.8742718.0835572 4.827433v1.9256319c-.0030355 2.9523395-.0225061 3.4475461-.0835572 4.8220916-.0616875 1.4-.2968438 2.156-.4928438 2.66-.4816875 1.2488438-1.4728437 2.2400001-2.7216875 2.7216876-.504.196-1.2654688.4311562-2.66.492625-1.4203637.0632916-1.9066149.0817985-5.1310505.0838092h-1.3185833c-3.2250251-.0020107-3.7159839-.0205176-5.1312102-.0838092-1.4-.0614688-2.156-.296625-2.6600001-.492625-.6214688-.2296875-1.1871562-.5936875-1.6463125-1.0696875-.476-.4648438-.84-1.0248438-1.0696875-1.6463126-.196-.504-.4311563-1.2656875-.4926251-2.66-.0632916-1.4203637-.0817984-1.9068078-.0838092-5.1312669v-1.3185855c.0020108-3.2250244.0205176-3.7159707.0838092-5.1309916.0614688-1.4.2966251-2.156.4926251-2.6600001.2296875-.6216874.5936875-1.1871562 1.075375-1.6465312.464625-.476 1.024625-.84 1.6463125-1.0694688.504-.196 1.2656875-.4311563 2.6600001-.4928437 1.3287273-.0590162 1.8401535-.0791775 4.5402331-.083198zm-1.2631151 4.367198c-4.0654688 0-7.3640001 3.2983126-7.3640001 7.3640002 0 4.0656875 3.2985313 7.3640001 7.3640001 7.3640001 4.0656876 0 7.3640002-3.2983126 7.3640002-7.3640001 0-4.0656876-3.2983126-7.3640002-7.3640002-7.3640002zm0 2.5871563c2.6376876 0 4.7768439 2.1391564 4.7768439 4.7768439s-2.1391563 4.7768438-4.7768439 4.7768438c-2.6374688 0-4.7768438-2.1391563-4.7768438-4.7768438s2.139375-4.7768439 4.7768438-4.7768439zm7.6551564-4.5974688c-.949375 0-1.7191562.7695625-1.7191562 1.7191563 0 .949375.7697812 1.7191563 1.7191562 1.7191563.9495938 0 1.719375-.7697813 1.719375-1.7191563 0-.9495938-.7697812-1.7191563-1.719375-1.7191563z" fill="#fff" fill-rule="evenodd"/></svg>