<?xml version="1.0" encoding="UTF-8"?>
<svg width="285px" height="122px" viewBox="0 0 285 122" version="1.1" xmlns="http://www.w3.org/2000/svg" xmlns:xlink="http://www.w3.org/1999/xlink">
    <title>Path</title>
    <g id="Page-1" stroke="none" stroke-width="1" fill="none" fill-rule="evenodd">
        <g id="Group" fill="#000000" fill-rule="nonzero">
            <path d="M282.491,56.0183333 L225.598333,2.05366667 C222.668015,-0.683912437 218.117985,-0.683912437 215.187667,2.05366667 C213.797974,3.32481033 213.006469,5.12147129 213.006469,7.00483333 C213.006469,8.88819538 213.797974,10.6848563 215.187667,11.956 L259.514333,54.0256667 L7.381,54.0256667 C3.40178133,53.9347176 0.0998687164,57.0819952 0,61.061 C0,64.9446667 3.31433333,68.0963333 7.40133333,68.0963333 L259.494,68.0963333 L215.187667,110.044 C213.797974,111.315144 213.006469,113.111805 213.006469,114.995167 C213.006469,116.878529 213.797974,118.67519 215.187667,119.946333 C216.604357,121.284485 218.485018,122.020713 220.433667,122.000425 C222.375305,122.015441 224.247726,121.279587 225.659333,119.946333 L282.552,65.9206667 C283.916963,64.6315963 284.685425,62.8336573 284.673989,60.9562411 C284.662295,59.0788249 283.87174,57.2904897 282.491,56.0183333 L282.491,56.0183333 Z" id="Path"></path>
        </g>
    </g>
</svg>