<?xml version="1.0" encoding="UTF-8"?>
<svg width="366px" height="512px" viewBox="0 0 366 512" version="1.1" xmlns="http://www.w3.org/2000/svg" xmlns:xlink="http://www.w3.org/1999/xlink">
    <g id="Page-1" stroke="none" stroke-width="1" fill="none" fill-rule="evenodd">
        <g id="touch-(1)" fill="#000000" fill-rule="nonzero">
            <path d="M54.425781,135.785156 C62.589844,134.375 68.0625,126.617188 66.65625,118.453125 C58.667969,72.164062 94.375,30 141.050781,30 C187.585938,30 223.355469,71.964844 215.476562,118.269531 C214.089844,126.4375 219.582031,134.183594 227.75,135.574219 C235.917969,136.96875 243.664062,131.46875 245.054688,123.300781 C256.015625,58.851562 206.273438,0 141.050781,0 C75.902344,0 25.921875,58.84375 37.09375,123.554688 C38.503906,131.742188 46.292969,137.191406 54.425781,135.785156 Z" id="Path"></path>
            <path d="M300.664062,240.644531 C289.421875,218.578125 262.644531,209.769531 240.664062,220.644531 C230.445312,200.585938 207.074219,191.109375 185.832031,198.484375 L185.832031,106.621094 C185.832031,82.136719 166.15625,61.679688 141.964844,61.015625 C116.617188,60.296875 95.613281,80.597656 95.613281,106 L95.613281,337.082031 L77.992188,318.628906 C61.078125,300.921875 32.757812,299.675781 14.855469,315.859375 C-4.035156,332.933594 -4.976562,362.007812 12.417969,380.28125 L113.691406,488.300781 C127.8125,503.359375 147.757812,512 168.40625,512 L290.550781,512 C331.90625,512 365.550781,478.355469 365.550781,437 L365.550781,281 C365.550781,247.769531 330.5,225.882812 300.664062,240.644531 Z M335.550781,437 C335.550781,461.8125 315.363281,482 290.550781,482 L168.40625,482 C156.015625,482 144.050781,476.816406 135.578125,467.777344 C135.214844,467.394531 34.527344,360 34.164062,359.617188 C28.363281,353.539062 28.640625,343.839844 34.96875,338.113281 C40.933594,332.726562 50.5,333.28125 56.292969,339.347656 L99.761719,384.867188 C109.082031,394.632812 125.609375,388.007812 125.609375,374.511719 L125.609375,106 C125.609375,97.570312 132.601562,90.765625 141.148438,91.003906 C149.246094,91.226562 155.832031,98.230469 155.832031,106.621094 C155.832031,271.675781 155.550781,196.859375 155.550781,286 C155.550781,294.308594 162.316406,301.078125 170.691406,300.992188 C179.054688,301.078125 185.832031,294.3125 185.832031,286 L185.832031,238.148438 C187.167969,231.234375 193.253906,226 200.550781,226 C208.820312,226 215.550781,232.730469 215.550781,241 L215.550781,286 C215.550781,294.285156 222.265625,301 230.550781,301 C238.835938,301 245.550781,294.285156 245.550781,286 L245.550781,261 C245.550781,252.730469 252.28125,246 260.550781,246 C268.820312,246 275.550781,252.730469 275.550781,261 L275.550781,286 C275.550781,294.285156 282.265625,301 290.550781,301 C298.835938,301 305.550781,294.285156 305.550781,286 L305.550781,281 C305.550781,272.730469 312.28125,266 320.550781,266 C328.820312,266 335.550781,272.730469 335.550781,281 L335.550781,437 Z" id="Shape"></path>
        </g>
    </g>
</svg>