<svg height="50" viewBox="0 0 50 50" width="50" xmlns="http://www.w3.org/2000/svg"><path d="m25 0c13.8071187 0 25 11.1928813 25 25s-11.1928813 25-25 25-25-11.1928813-25-25 11.1928813-25 25-25zm5.4450732 12c-3.5157762 0-6.3462083 2.8536642-6.3462083 6.3520164 0 .50336.042592.98736.147136 1.4481281-5.2794723-.2574881-9.9510406-2.7878402-13.0892968-6.6424164-.547888.950576-.869264 2.0386081-.869264 3.2098882 0 2.1992961 1.13256 4.1488482 2.8207521 5.2775363-1.020272-.01936-2.0211841-.3155681-2.8691521-.7821441v.069696c0 3.0859842 2.2012321 5.6492483 5.0878083 6.2397284-.5169121.141328-1.0802881.209088-1.6649601.209088-.4065601 0-.8169921-.023232-1.2022561-.108416.8228 2.5148641 3.1576162 4.3637442 5.9338403 4.4237602-2.1605761 1.6901281-4.9038882 2.7084642-7.8737124 2.7084642-.52078404 0-1.02027207-.023232-1.5197601-.08712 2.8130082 1.8140321 6.1468004 2.8497922 9.7419526 2.8497922 11.6856966 0 18.074497-9.6800006 18.074497-18.0706251 0-.28072-.00968-.55176-.023232-.820864 1.2603361-.8944321 2.3193282-2.0115042 3.1827842-3.2970082-1.1519201.505296-2.3793441.840224-3.6590402 1.002848 1.3164801-.786016 2.3212641-2.0211841 2.7936482-3.5099682-1.2274241.7318081-2.5826242 1.2487201-4.0268803 1.5371841-1.165472-1.2409761-2.8265601-2.0095681-4.6386563-2.0095681z" fill="#fff" fill-rule="evenodd"/></svg>