<svg height="50" viewBox="0 0 50 50" width="50" xmlns="http://www.w3.org/2000/svg"><path d="m25 0c13.8071187 0 25 11.1928813 25 25s-11.1928813 25-25 25-25-11.1928813-25-25 11.1928813-25 25-25zm6.1199991 21.5999996c-5.3011198 0-9.5999996 3.4387198-9.5999996 7.6799996s4.2988798 7.6799997 9.5999996 7.6799997c.8716799 0 1.7011199-.12288 2.5055998-.2976l5.1743998 2.2175999-1.7894399-3.5769598.2372746-.1534565c2.1081914-1.406781 3.4721652-3.5016062 3.4721652-5.8695833 0-4.2412798-4.2988798-7.6799996-9.5999995-7.6799996zm-9.5999996-9.5999996c-6.3628797 0-11.5199995 4.2988798-11.5199995 9.5999996 0 3.0566398 1.7241599 5.7676797 4.3987198 7.5225596l-1.5187199 3.0374399 4.1375998-1.7721599.3823599.1312989c.7692874.254817 1.5669886.4600611 2.41124.563741-.1344-.5855999-.2112-1.1865599-.2112-1.8028799 0-5.2934397 5.1667197-9.5999995 11.5199995-9.5999995.5817599 0 1.1500799.048 1.7107199.11712-1.01376-4.4390399-5.6889598-7.7971197-11.3107195-7.7971197zm6.7199997 13.9199994c.7948799 0 1.4399999.6451199 1.4399999 1.4399999s-.64512 1.4399999-1.4399999 1.4399999c-.79488 0-1.44-.6451199-1.44-1.4399999s.64512-1.4399999 1.44-1.4399999zm5.7599997 0c.79488 0 1.44.6451199 1.44 1.4399999s-.64512 1.4399999-1.44 1.4399999c-.7948799 0-1.4399999-.6451199-1.4399999-1.4399999s.64512-1.4399999 1.4399999-1.4399999zm-16.3199992-9.5999996c.7948799 0 1.4399999.64512 1.4399999 1.4399999 0 .79488-.64512 1.44-1.4399999 1.44-.79488 0-1.44-.64512-1.44-1.44 0-.7948799.64512-1.4399999 1.44-1.4399999zm7.6799996 0c.79488 0 1.4399999.64512 1.4399999 1.4399999 0 .79488-.6451199 1.44-1.4399999 1.44s-1.4399999-.64512-1.4399999-1.44c0-.7948799.6451199-1.4399999 1.4399999-1.4399999z" fill="#fff" fill-rule="evenodd"/></svg>