<svg height="50" viewBox="0 0 50 50" width="50" xmlns="http://www.w3.org/2000/svg"><path d="m25 0c13.8071187 0 25 11.1928813 25 25s-11.1928813 25-25 25-25-11.1928813-25-25 11.1928813-25 25-25zm-.4264534 20.2037866c.99904-2.9986133-.0970666-6.0390399-3.8065066-5.1221333-3.41824.8452267-5.9300267 2.67904-8.3133867 5.0235733-2.49834664 2.4565334-5.04298663 5.34016-5.41034663 9.06304-.4256 4.3246934 2.33855999 6.496 5.00864003 7.9803733 9.7380266 5.4088534 25.3284266.4644267 26.2453332-6.8962133.4751787-3.8156989-2.2471495-4.5975161-4.6724982-5.8334231l-.3361418-.1757502c.5480534-1.4037333.88704-3.22112 0-4.2365867-2.0130133-2.3027199-6.5661866.0552534-8.7150933.19712zm-10.0172799 5.2221867c6.2286933-3.5944533 17.6153599-2.1294933 17.6303119 4.4337067.0044613 1.58592-.8004453 2.94784-1.6023653 3.8408533-2.1922133 2.4475733-6.8081067 4.0484266-11.41952 3.7437866-8.70464-.57344-11.69727997-7.9266133-4.6084266-12.0183466zm11.6211199 3.9409067c-.64064-1.8965334-2.8059733-3.3540267-5.7105066-3.0538667-3.4018134.3509333-6.6692267 3.2509867-5.3088 6.8962133 2.03392 5.4506667 13.15328 2.5013333 11.0193066-3.8423466zm-7.6145066 1.18272c2.8224-.6496 2.57152 2.81344.7018666 3.2509866-2.6133333.6107734-3.0717866-2.7074133-.7018666-3.2509866zm2.50432-.09856c-.00896-.9960534 1.2932266-1.1005867 1.40224-.39424.0910933.6107733-.94976 1.1648-1.40224.39424zm21.7384533-10.93568c-.4091734-5.20128-4.8010667-9.1362133-10.6205867-8.3746133-.7720533.1015466-1.5441067.0896-1.7024.9856-.3509333 2.03392 1.9264 1.37984 2.9060267 1.37984 3.4600533 0 6.9917866 2.82688 6.91264 6.8962133-.0283734 1.4037333-1.15136 3.73632 1.0020266 3.5466666 1.3186134-.11648 1.6561067-2.4699733 1.5022934-4.4337066zm-6.0106667 2.8567466c2.0324267-.1329066 1.7038933-6.8991999-3.6049067-6.5019733-.5794133.0433067-1.60384-.0776533-1.60384 1.08416 0 1.56352 1.76512.6555734 2.9045334 1.1812267.5809066.2688 1.2469333 1.1812266 1.3021866 1.9712.0881067 1.2827733-.45696 2.36096 1.0020267 2.2653866z" fill="#fff" fill-rule="evenodd"/></svg>