<svg height="50" viewBox="0 0 50 50" width="50" xmlns="http://www.w3.org/2000/svg"><path d="m25 0c13.8071187 0 25 11.1928813 25 25s-11.1928813 25-25 25-25-11.1928813-25-25 11.1928813-25 25-25zm.319888 15.0006935-1.6334991-.0000006c-3.8438978.0064938-8.0268139.058998-9.7573889.1730344-1.8541875.105-2.7686875.3741818-3.6173125 1.8499089-.8660625 1.471909-1.3116875 4.0071816-1.3116875 8.4706359v.0152727c0 4.4443634.445625 6.9987269 1.3116875 8.4553632.848625 1.4738181 1.7611875 1.7410908 3.615375 1.8651817 1.856125.1069091 6.5255.1699103 10.5768125.1699103 4.0435625 0 8.711-.0630012 10.5690625-.1680012 1.8580625-.1240909 2.770625-.3913637 3.6115-1.8651817.8738125-1.4566363 1.3155625-4.0109998 1.3155625-8.4553632v-.0152727c0-4.4653634-.44175-7.000636-1.3175-8.472545-.840875-1.4738181-1.7534375-1.7449089-3.6115-1.8479998-1.7323833-.1158182-5.9137322-.1684412-9.751112-.1749429zm-4.694888 4.7720335 9.6875 5.7272724-9.6875 5.7272724z" fill="#fff" fill-rule="evenodd"/></svg>