<svg xmlns="http://www.w3.org/2000/svg" style="position:absolute; width: 0; height: 0"><symbol id="shape-bullet"><path d="M20 10c0 5.523-4.477 10-10 10S0 15.523 0 10 4.477 0 10 0s10 4.477 10 10zM8.843 15.295l7.42-7.42a.645.645 0 0 0 0-.912l-.913-.912a.645.645 0 0 0-.912 0l-6.05 6.05-2.826-2.824a.645.645 0 0 0-.912 0l-.913.912a.645.645 0 0 0 0 .912l4.194 4.194c.252.252.66.252.912 0z"></path></symbol><symbol viewBox="0 0 50 50" id="shape-facebook"><path d="M25 0c13.807 0 25 11.193 25 25S38.807 50 25 50 0 38.807 0 25 11.193 0 25 0zm6.784 8H27.56a6.336 6.336 0 0 0-6.336 6.336v5.28H17v5.28h4.224v16.896h6.336V24.896h4.224l2.112-5.28H27.56v-4.224c0-1.166.946-2.112 2.112-2.112h2.112z" fill="#fff" fill-rule="evenodd"></path></symbol><symbol id="shape-hauserwirth-logo"><path d="M2.281 5.691H8.27V.525h2.197v13.151H8.27V7.654H2.281v6.022H0V.526h2.281v5.165zm171.582.056h5.988V.58h2.198v13.15h-2.198V7.708h-5.988v6.021h-2.282V.58h2.282v5.167zM23.385 9.387l-2.08-6.19-1.946 6.19h4.026zm-7.833 4.344l4.411-13.2h2.734l4.428 13.2h-2.23l-.84-2.466h-5.384l-.787 2.466h-2.332zM34.76 8.548c0 .95.29 1.759.872 2.423.58.667 1.296.999 2.147.999.96 0 1.705-.391 2.23-1.174.425-.649.638-1.398.638-2.248V.497h2.197v8.437c0 1.398-.459 2.578-1.375 3.54-.962 1.017-2.192 1.525-3.69 1.525-1.51 0-2.76-.475-3.75-1.425-.989-.95-1.484-2.165-1.484-3.64V.497h2.214v8.051h.001zm18.93-6.295c-.727 0-1.286.17-1.677.512-.392.341-.587.785-.587 1.333 0 .828.591 1.37 1.778 1.627l2.885.62c.793.169 1.443.537 1.946 1.108.525.604.787 1.32.787 2.147 0 1.264-.441 2.304-1.324 3.12-.884.816-2.047 1.224-3.49 1.224-1.14 0-2.07-.174-2.792-.52-.722-.346-1.53-.995-2.424-1.946l1.694-1.425c1.14 1.23 2.315 1.845 3.522 1.845 1.778 0 2.668-.593 2.668-1.778 0-.917-.543-1.493-1.628-1.727l-2.683-.57c-.951-.214-1.711-.666-2.281-1.36-.56-.66-.84-1.42-.84-2.28 0-1.186.426-2.132 1.275-2.835C51.37.643 52.516.29 53.958.29a8.346 8.346 0 0 1 1.846.285c1.33.357 2.258.99 2.784 1.895l-1.795 1.325c-.604-.95-1.639-1.465-3.103-1.543v.001zm13.628 3.69h5.635v1.963h-5.519v3.74h6.375v2.03h-8.706V.476h8.32v1.962h-6.105v3.505zm17.584.604c1.51 0 2.264-.654 2.264-1.962 0-.65-.205-1.152-.612-1.51-.408-.357-.942-.536-1.602-.536h-2.667v4.008h2.617zm2.432 7.13l-2.684-5.15h-2.365v5.15h-2.198V.575h4.73c1.455 0 2.578.419 3.372 1.258.693.75 1.04 1.722 1.04 2.919a5.617 5.617 0 0 1-.285 1.526c-.38 1.063-1.051 1.716-2.012 1.962l2.733 5.435h-2.331v.002zm28.916.054L113.044.497h2.349l2.247 8.705 1.996-8.705h2.6l2.13 8.705 2.097-8.705h2.299l-3.037 13.234h-2.5l-2.28-9.746-2.18 9.746h-2.517.002zm17.953 0h2.298V.513h-2.298v13.218zm13.869-7.184c1.51 0 2.265-.654 2.265-1.962 0-.65-.205-1.152-.612-1.51-.408-.357-.942-.536-1.601-.536h-2.667v4.008h2.615zm2.433 7.13l-2.684-5.15h-2.364v5.15h-2.199V.575h4.731c1.454 0 2.577.419 3.372 1.258.693.75 1.04 1.722 1.04 2.919a5.618 5.618 0 0 1-.285 1.526c-.381 1.063-1.052 1.716-2.014 1.962l2.734 5.435h-2.331v.002zm15.947-11.072h-3.607v11.071h-2.198V2.605h-3.623V.593h9.428v2.012zm-64.76.22c-.658 0-.987.378-.987 1.132 0 .417.151.809.45 1.176.29-.077.581-.252.87-.522.33-.3.495-.59.495-.871 0-.61-.276-.915-.828-.915zm-2.264 6.023c0 .494.203.956.61 1.386.406.431.856.646 1.35.646.174-.01.338-.034.493-.072.368-.097.658-.267.87-.508l-2.22-3.12c-.687.32-1.054.876-1.103 1.668zm5.166-1.349h1.83c-.02.978-.427 2.002-1.22 3.077.166.183.411.285.74.304-.009 0 .223-.03.697-.087l.203 1.669c-.28.106-.638.164-1.074.174-.444 0-.798-.057-1.06-.174-.212-.096-.487-.3-.826-.61-.6.365-1.05.592-1.35.68-.232.07-.6.104-1.103.104-1.006 0-1.88-.375-2.62-1.125-.74-.752-1.11-1.597-1.11-2.536a4.63 4.63 0 0 1 .233-1.207c.319-.89.88-1.526 1.683-1.903-.446-.436-.683-1.104-.712-2.006 0-.659.247-1.263.74-1.816.533-.581 1.152-.872 1.859-.872.793 0 1.444.259 1.952.777s.76 1.144.76 1.88c-.027.367-.11.71-.245 1.03-.329.754-.9 1.32-1.712 1.698l1.813 2.452c.088-.116.165-.247.233-.391.155-.34.25-.712.289-1.118z"></path></symbol><symbol viewBox="0 0 50 50" id="shape-instagram"><path d="M25 0c13.807 0 25 11.193 25 25S38.807 50 25 50 0 38.807 0 25 11.193 0 25 0zm.634 11h-2.546c-2.752.005-3.291.025-4.635.084-1.523.067-2.57.314-3.477.666a6.994 6.994 0 0 0-2.543 1.658 7.058 7.058 0 0 0-1.652 2.537c-.353.913-.599 1.954-.666 3.477-.064 1.349-.085 1.889-.089 4.64v2.547c.004 2.752.024 3.291.083 4.635.067 1.523.314 2.57.667 3.478.364.963.93 1.825 1.657 2.542a7.055 7.055 0 0 0 2.537 1.652c.913.353 1.954.6 3.478.666 1.436.064 1.953.082 5.237.084h1.342c3.284-.002 3.8-.02 5.237-.084 1.523-.067 2.57-.313 3.477-.666a7.332 7.332 0 0 0 4.195-4.194c.352-.913.599-1.955.666-3.478.067-1.529.084-2.016.084-5.908 0-3.892-.006-4.38-.073-5.908-.067-1.523-.313-2.57-.666-3.478a6.995 6.995 0 0 0-1.658-2.542 7.055 7.055 0 0 0-2.537-1.652c-.912-.353-1.954-.6-3.477-.666-1.349-.064-1.888-.085-4.64-.09zm-.01 2.605c2.704.004 3.215.024 4.539.083 1.4.062 2.156.297 2.66.493.621.23 1.187.593 1.646 1.07.476.464.84 1.024 1.07 1.646.196.504.431 1.265.493 2.66.06 1.374.08 1.874.083 4.827v1.926c-.003 2.952-.022 3.447-.083 4.822-.062 1.4-.297 2.156-.493 2.66a4.755 4.755 0 0 1-2.722 2.722c-.504.196-1.265.43-2.66.492-1.42.064-1.906.082-5.13.084h-1.32c-3.225-.002-3.715-.02-5.13-.084-1.4-.061-2.157-.296-2.66-.492a4.411 4.411 0 0 1-1.647-1.07 4.457 4.457 0 0 1-1.07-1.646c-.196-.504-.43-1.266-.492-2.66-.064-1.42-.082-1.907-.084-5.132v-1.318c.002-3.225.02-3.716.084-5.131.061-1.4.296-2.156.492-2.66a4.357 4.357 0 0 1 1.076-1.647 4.45 4.45 0 0 1 1.646-1.07c.504-.195 1.266-.43 2.66-.492 1.329-.059 1.84-.08 4.54-.083zm-1.263 4.367a7.366 7.366 0 0 0-7.364 7.364 7.366 7.366 0 0 0 7.364 7.364 7.366 7.366 0 0 0 7.364-7.364 7.366 7.366 0 0 0-7.364-7.364zm0 2.587a4.777 4.777 0 1 1-.001 9.555 4.777 4.777 0 0 1 .001-9.555zm7.655-4.597a1.72 1.72 0 1 0 0 3.438 1.72 1.72 0 0 0 0-3.438z" fill="#fff" fill-rule="evenodd"></path></symbol><symbol viewBox="0 0 31.494 31.494" id="shape-left-arrow-blk"><path d="M10.273 5.009a1.112 1.112 0 0 1 1.587 0 1.12 1.12 0 0 1 0 1.571l-8.047 8.047h26.554c.619 0 1.127.492 1.127 1.111s-.508 1.127-1.127 1.127H3.813l8.047 8.032c.429.444.429 1.159 0 1.587a1.112 1.112 0 0 1-1.587 0L.321 16.532a1.12 1.12 0 0 1 0-1.571l9.952-9.952z" fill="#1e201d"></path></symbol><symbol viewBox="0 0 572 410" id="shape-link-arrow-white"><path d="M564.14 185.886L386.46 8.202C381.388 3.13 374.628.346 367.42.346c-7.216 0-13.972 2.788-19.044 7.856l-16.132 16.136c-5.068 5.064-7.86 11.828-7.86 19.04 0 7.208 2.792 14.2 7.86 19.264L435.9 166.526H26.58C11.732 166.526 0 178.15 0 193.002v22.812c0 14.852 11.732 27.648 26.58 27.648h410.496L332.248 347.926c-5.068 5.072-7.86 11.652-7.86 18.864 0 7.204 2.792 13.88 7.86 18.948l16.132 16.084c5.072 5.072 11.828 7.836 19.044 7.836 7.208 0 13.968-2.8 19.04-7.872l177.68-177.68c5.084-5.088 7.88-11.88 7.86-19.1.016-7.244-2.776-14.04-7.864-19.12z" fill="#fff"></path></symbol><symbol viewBox="0 0 572 410" id="shape-link-arrow"><path d="M564.14 185.886L386.46 8.202C381.388 3.13 374.628.346 367.42.346c-7.216 0-13.972 2.788-19.044 7.856l-16.132 16.136c-5.068 5.064-7.86 11.828-7.86 19.04 0 7.208 2.792 14.2 7.86 19.264L435.9 166.526H26.58C11.732 166.526 0 178.15 0 193.002v22.812c0 14.852 11.732 27.648 26.58 27.648h410.496L332.248 347.926c-5.068 5.072-7.86 11.652-7.86 18.864 0 7.204 2.792 13.88 7.86 18.948l16.132 16.084c5.072 5.072 11.828 7.836 19.044 7.836 7.208 0 13.968-2.8 19.04-7.872l177.68-177.68c5.084-5.088 7.88-11.88 7.86-19.1.016-7.244-2.776-14.04-7.864-19.12z" fill="#9B9B9B"></path></symbol><symbol viewBox="0 0 512 512" id="shape-linkedin"><path d="M256 0c141.168 0 256 114.842 256 256 0 141.148-114.852 256-256 256C114.842 512 0 397.148 0 256 0 114.842 114.842 0 256 0zm65.938 199.45c-27.782 0-40.189 15.27-47.131 25.992v-22.278h-52.322c.68 14.747 0 157.422 0 157.422h52.322v-87.948c0-4.693.3-9.413 1.713-12.773 3.791-9.413 12.394-19.153 26.853-19.153 18.931 0 26.501 14.433 26.501 35.613v84.222h52.335v-90.275c-.026-48.321-25.847-70.821-60.27-70.821zm-180.772 3.714v157.422h52.321V203.164h-52.321zm26.513-75.894c-17.885 0-29.599 11.74-29.599 27.193 0 15.1 11.361 27.194 28.907 27.194h.34c18.25 0 29.612-12.093 29.612-27.194-.353-15.44-11.348-27.193-29.26-27.193z" fill="#FFF" fill-rule="nonzero"></path></symbol><symbol viewBox="0 0 183 14" id="shape-main-logo"><path d="M2.281 5.691H8.27V.525h2.197v13.151H8.27V7.654H2.281v6.022H0V.526h2.281zm171.582.056h5.988V.58h2.198v13.15h-2.198V7.708h-5.988v6.021h-2.282V.58h2.282zM23.385 9.387l-2.08-6.19-1.946 6.19zm-7.833 4.344l4.411-13.2h2.734l4.428 13.2h-2.23l-.84-2.466h-5.384l-.787 2.466zM34.76 8.548c0 .95.29 1.759.872 2.423.58.667 1.296.999 2.147.999.96 0 1.705-.391 2.23-1.174.425-.649.638-1.398.638-2.248V.497h2.197v8.437c0 1.398-.459 2.578-1.375 3.54-.962 1.017-2.192 1.525-3.69 1.525-1.51 0-2.76-.475-3.75-1.425-.989-.95-1.484-2.165-1.484-3.64V.497h2.214v8.051zm18.93-6.295c-.727 0-1.286.17-1.677.512-.392.341-.587.785-.587 1.333 0 .828.591 1.37 1.778 1.627l2.885.62c.793.169 1.443.537 1.946 1.108.525.604.787 1.32.787 2.147 0 1.264-.441 2.304-1.324 3.12-.884.816-2.047 1.224-3.49 1.224-1.14 0-2.07-.174-2.792-.52s-1.53-.995-2.424-1.946l1.694-1.425c1.14 1.23 2.315 1.845 3.522 1.845 1.778 0 2.668-.593 2.668-1.778 0-.917-.543-1.493-1.628-1.727l-2.683-.57c-.951-.214-1.711-.666-2.281-1.36-.56-.66-.84-1.42-.84-2.28 0-1.186.426-2.132 1.275-2.835C51.37.643 52.516.29 53.958.29a8.346 8.346 0 0 1 1.846.285c1.33.357 2.258.99 2.784 1.895l-1.795 1.325c-.604-.95-1.639-1.465-3.103-1.543zm13.628 3.69h5.635v1.963h-5.519v3.74h6.375v2.03h-8.706V.476h8.32v1.962h-6.105zm17.584.604c1.51 0 2.264-.654 2.264-1.962 0-.65-.205-1.152-.612-1.51-.408-.357-.942-.536-1.602-.536h-2.667v4.008zm2.432 7.13l-2.684-5.15h-2.365v5.15h-2.198V.575h4.73c1.455 0 2.578.419 3.372 1.258.693.75 1.04 1.722 1.04 2.919a5.617 5.617 0 0 1-.285 1.526c-.38 1.063-1.051 1.716-2.012 1.962l2.733 5.435h-2.331zm28.916.054L113.044.497h2.349l2.247 8.705 1.996-8.705h2.6l2.13 8.705 2.097-8.705h2.299l-3.037 13.234h-2.5l-2.28-9.746-2.18 9.746h-2.517zm17.953 0h2.298V.513h-2.298zm13.869-7.184c1.51 0 2.265-.654 2.265-1.962 0-.65-.205-1.152-.612-1.51-.408-.357-.942-.536-1.601-.536h-2.667v4.008zm2.433 7.13l-2.684-5.15h-2.364v5.15h-2.199V.575h4.731c1.454 0 2.577.419 3.372 1.258.693.75 1.04 1.722 1.04 2.919a5.618 5.618 0 0 1-.285 1.526c-.381 1.063-1.052 1.716-2.014 1.962l2.734 5.435h-2.331zm15.947-11.072h-3.607v11.071h-2.198V2.605h-3.623V.593h9.428zm-64.76.22c-.658 0-.987.378-.987 1.132 0 .417.151.809.45 1.176.29-.077.581-.252.87-.522.33-.3.495-.59.495-.871 0-.61-.276-.915-.828-.915zm-2.264 6.023c0 .494.203.956.61 1.386.406.431.856.646 1.35.646.174-.01.338-.034.493-.072.368-.097.658-.267.87-.508l-2.22-3.12c-.687.32-1.054.876-1.103 1.668zm5.166-1.349h1.83c-.02.978-.427 2.002-1.22 3.077.166.183.411.285.74.304-.009 0 .223-.03.697-.087l.203 1.669c-.28.106-.638.164-1.074.174-.444 0-.798-.057-1.06-.174-.212-.096-.487-.3-.826-.61-.6.365-1.05.592-1.35.68-.232.07-.6.104-1.103.104-1.006 0-1.88-.375-2.62-1.125-.74-.752-1.11-1.597-1.11-2.536a4.63 4.63 0 0 1 .233-1.207c.319-.89.88-1.526 1.683-1.903-.446-.436-.683-1.104-.712-2.006 0-.659.247-1.263.74-1.816.533-.581 1.152-.872 1.859-.872.793 0 1.444.259 1.952.777s.76 1.144.76 1.88c-.027.367-.11.71-.245 1.03-.329.754-.9 1.32-1.712 1.698l1.813 2.452c.088-.116.165-.247.233-.391.155-.34.25-.712.289-1.118z"></path></symbol><symbol viewBox="0 0 40 30" id="shape-play"><g fill="none" fill-rule="evenodd"><rect width="40" height="30" fill="#FFF" rx="2"></rect><path fill="#222" d="M23.333 15.333l-6.666 4v-8z"></path></g></symbol><symbol viewBox="0 0 366 512" id="shape-touch"><g fill="#000" fill-rule="nonzero"><path d="M54.426 135.785c8.164-1.41 13.636-9.168 12.23-17.332C58.668 72.164 94.375 30 141.051 30c46.535 0 82.304 41.965 74.426 88.27-1.387 8.168 4.105 15.914 12.273 17.304 8.168 1.395 15.914-4.105 17.305-12.273C256.015 58.85 206.273 0 141.05 0 75.902 0 25.92 58.844 37.094 123.555c1.41 8.187 9.199 13.636 17.332 12.23z"></path><path d="M300.664 240.645c-11.242-22.067-38.02-30.875-60-20-10.219-20.06-33.59-29.536-54.832-22.16V106.62c0-24.484-19.676-44.941-43.867-45.605-25.348-.72-46.352 19.582-46.352 44.984v231.082l-17.62-18.453c-16.915-17.707-45.235-18.953-63.138-2.77-18.89 17.075-19.832 46.149-2.437 64.422l101.273 108.02C127.812 503.359 147.758 512 168.406 512h122.145c41.355 0 75-33.645 75-75V281c0-33.23-35.051-55.117-64.887-40.355zM335.551 437c0 24.813-20.188 45-45 45H168.406c-12.39 0-24.355-5.184-32.828-14.223-.363-.382-101.05-107.777-101.414-108.16-5.8-6.078-5.523-15.777.805-21.504 5.965-5.386 15.531-4.832 21.324 1.235l43.469 45.52c9.32 9.765 25.847 3.14 25.847-10.356V106c0-8.43 6.993-15.234 15.54-14.996 8.097.223 14.683 7.226 14.683 15.617 0 165.055-.281 90.238-.281 179.379 0 8.309 6.765 15.078 15.14 14.992 8.364.086 15.141-6.68 15.141-14.992v-47.852c1.336-6.914 7.422-12.148 14.719-12.148 8.27 0 15 6.73 15 15v45c0 8.285 6.715 15 15 15s15-6.715 15-15v-25c0-8.27 6.73-15 15-15s15 6.73 15 15v25c0 8.285 6.715 15 15 15s15-6.715 15-15v-5c0-8.27 6.73-15 15-15s15 6.73 15 15v156z"></path></g></symbol><symbol viewBox="0 0 50 50" id="shape-twitter"><path d="M25 0c13.807 0 25 11.193 25 25S38.807 50 25 50 0 38.807 0 25 11.193 0 25 0zm5.445 12a6.348 6.348 0 0 0-6.346 6.352c0 .503.042.987.147 1.448-5.28-.257-9.951-2.788-13.09-6.642a6.393 6.393 0 0 0-.869 3.21 6.36 6.36 0 0 0 2.821 5.277 6.271 6.271 0 0 1-2.869-.782v.07c0 3.086 2.201 5.649 5.088 6.24-.517.14-1.08.209-1.665.209-.407 0-.817-.024-1.202-.109.822 2.515 3.157 4.364 5.933 4.424a12.76 12.76 0 0 1-7.873 2.708c-.521 0-1.02-.023-1.52-.087a17.878 17.878 0 0 0 9.742 2.85c11.686 0 18.074-9.68 18.074-18.07 0-.281-.01-.552-.023-.821a12.669 12.669 0 0 0 3.183-3.297 13.24 13.24 0 0 1-3.659 1.002 6.315 6.315 0 0 0 2.794-3.51 12.69 12.69 0 0 1-4.027 1.538A6.364 6.364 0 0 0 30.445 12z" fill="#fff" fill-rule="evenodd"></path></symbol><symbol viewBox="0 0 50 50" id="shape-wechat"><path d="M25 0c13.807 0 25 11.193 25 25S38.807 50 25 50 0 38.807 0 25 11.193 0 25 0zm6.12 21.6c-5.301 0-9.6 3.439-9.6 7.68s4.299 7.68 9.6 7.68c.872 0 1.701-.123 2.506-.298L38.8 38.88l-1.79-3.577.238-.153c2.108-1.407 3.472-3.502 3.472-5.87 0-4.241-4.299-7.68-9.6-7.68zm-9.6-9.6C15.157 12 10 16.299 10 21.6c0 3.057 1.724 5.768 4.399 7.523L12.88 32.16l4.138-1.772.382.131c.77.255 1.567.46 2.411.564a8.039 8.039 0 0 1-.211-1.803c0-5.293 5.167-9.6 11.52-9.6.582 0 1.15.048 1.71.117C31.818 15.358 27.143 12 21.52 12zm6.72 13.92a1.44 1.44 0 1 1-.001 2.881 1.44 1.44 0 0 1 .001-2.881zm5.76 0a1.44 1.44 0 1 1-.001 2.881A1.44 1.44 0 0 1 34 25.92zm-16.32-9.6a1.44 1.44 0 1 1-.001 2.881 1.44 1.44 0 0 1 .001-2.881zm7.68 0a1.44 1.44 0 1 1-.001 2.881 1.44 1.44 0 0 1 .001-2.881z" fill="#fff" fill-rule="evenodd"></path></symbol><symbol viewBox="0 0 50 50" id="shape-weibo"><path d="M25 0c13.807 0 25 11.193 25 25S38.807 50 25 50 0 38.807 0 25 11.193 0 25 0zm-.426 20.204c.999-2.999-.098-6.04-3.807-5.122-3.418.845-5.93 2.679-8.313 5.023-2.499 2.457-5.043 5.34-5.41 9.063-.426 4.325 2.338 6.496 5.008 7.98 9.738 5.41 25.328.465 26.245-6.896.475-3.815-2.247-4.597-4.672-5.833l-.336-.176c.548-1.403.887-3.22 0-4.236-2.013-2.303-6.567.055-8.715.197zm-10.018 5.222c6.229-3.594 17.616-2.13 17.63 4.434.005 1.586-.8 2.948-1.602 3.84-2.192 2.448-6.808 4.049-11.42 3.744-8.704-.573-11.697-7.926-4.608-12.018zm11.621 3.94c-.64-1.896-2.806-3.353-5.71-3.053-3.402.35-6.67 3.251-5.309 6.896 2.034 5.45 13.153 2.502 11.02-3.842zm-7.614 1.184c2.822-.65 2.571 2.813.702 3.25-2.614.611-3.072-2.707-.702-3.25zm2.504-.099c-.009-.996 1.293-1.1 1.402-.394.092.61-.95 1.165-1.402.394zm21.739-10.936c-.41-5.2-4.801-9.136-10.62-8.374-.773.101-1.545.09-1.703.985-.351 2.034 1.926 1.38 2.906 1.38 3.46 0 6.991 2.827 6.912 6.896-.028 1.404-1.151 3.737 1.002 3.547 1.319-.116 1.656-2.47 1.503-4.434zm-6.011 2.857c2.032-.133 1.704-6.9-3.605-6.502-.58.043-1.604-.078-1.604 1.084 0 1.564 1.765.656 2.905 1.182.58.268 1.247 1.18 1.302 1.97.088 1.283-.457 2.362 1.002 2.266z" fill="#fff" fill-rule="evenodd"></path></symbol><symbol viewBox="0 0 50 50" id="shape-youtube"><path d="M25 0c13.807 0 25 11.193 25 25S38.807 50 25 50 0 38.807 0 25 11.193 0 25 0zm.32 15h-1.634c-3.844.007-8.026.06-9.757.174-1.854.105-2.769.374-3.617 1.85C9.446 18.496 9 21.03 9 25.494v.016c0 4.444.446 6.998 1.312 8.455.848 1.474 1.76 1.741 3.615 1.865 1.856.107 6.526.17 10.577.17 4.043 0 8.71-.063 10.569-.168 1.858-.124 2.77-.391 3.611-1.865C39.558 32.51 40 29.956 40 25.51v-.015c0-4.465-.442-7-1.318-8.472-.84-1.474-1.753-1.745-3.611-1.848-1.732-.116-5.914-.169-9.751-.175zm-4.695 4.773l9.688 5.727-9.688 5.727z" fill="#fff" fill-rule="evenodd"></path></symbol></svg>